<svg id="no-hunt" enable-background="new 0 0 300 300" height="512" viewBox="0 0 300 300" width="512" xmlns="http://www.w3.org/2000/svg"><g><circle cx="158.016" cy="137.998" fill="#e7d1c4" r="74"/><g><path d="m56.016 159.998h48v112l-4.243-4.763c-2.823-3.17-4.93-6.911-6.175-10.969l-9.692-70.661-23.89 86.393c-4.78-6.238-7.578-13.768-8.031-21.614z" fill="#77a052"/><path d="m104.016 275.998c-1.117 0-2.215-.471-2.988-1.34l-4.242-4.764c-3.227-3.623-5.586-7.814-7.012-12.455-.062-.205-.109-.416-.141-.631l-7.051-51.412-18.711 67.668c-.406 1.463-1.602 2.57-3.094 2.859-1.484.303-3.012-.289-3.938-1.492-5.289-6.9-8.348-15.137-8.848-23.818-.008-.137-.012-.273-.004-.408l4.031-90.385c.094-2.139 1.855-3.822 3.996-3.822h48c2.211 0 4 1.791 4 4v112c0 1.66-1.023 3.148-2.578 3.738-.459.176-.944.262-1.42.262zm-48.028-25.647c.254 3.982 1.168 7.848 2.691 11.465l21.371-77.277c.504-1.83 2.207-3.09 4.121-2.924 1.895.125 3.438 1.566 3.699 3.447l9.645 70.328c.621 1.938 1.457 3.77 2.5 5.482v-96.875h-40.175z" fill="#4c241d"/></g><path d="m150.016 215.998c-7.719 0-14-6.281-14-14s6.281-14 14-14 14 6.281 14 14-6.281 14-14 14zm0-20c-3.309 0-6 2.691-6 6s2.691 6 6 6 6-2.691 6-6-2.692-6-6-6z" fill="#4c241d"/><circle cx="240.344" cy="102.389" fill="#4c241d" r="4.276"/><circle cx="136.344" cy="138.389" fill="#4c241d" r="4.276"/><g><path d="m64.016 51.998h20v32h-20z" fill="#ffe8dc"/><path d="m84.016 87.998h-20c-2.211 0-4-1.791-4-4v-32c0-2.209 1.789-4 4-4h20c2.211 0 4 1.791 4 4v32c0 2.209-1.789 4-4 4zm-16-8h12v-24h-12z" fill="#4c241d"/></g><g><path d="m88.25 83.998h-23.202c-4.988 0-9.032 4.044-9.032 9.032v66.968h48v-60.235c0-8.707-7.059-15.765-15.766-15.765z" fill="#a9ba5a"/><path d="m104.016 163.998h-48c-2.211 0-4-1.791-4-4v-66.969c0-7.186 5.848-13.031 13.031-13.031h23.203c10.898 0 19.766 8.867 19.766 19.766v60.234c0 2.209-1.789 4-4 4zm-44-8h40v-56.234c0-6.488-5.277-11.766-11.766-11.766h-23.203c-2.773 0-5.031 2.258-5.031 5.031z" fill="#4c241d"/></g><g><path d="m220.016 71.998h-84-4-68v14.849c0 4.882 4.243 8.68 9.095 8.141l62.905-6.989 16-4h56z" fill="#6b4f5b"/><path d="m72.207 99.039c-2.98 0-5.887-1.098-8.129-3.107-2.582-2.311-4.062-5.621-4.062-9.084v-14.85c0-2.209 1.789-4 4-4h156c1.617 0 3.078.975 3.695 2.469.621 1.496.277 3.215-.867 4.359l-12 12c-.75.75-1.766 1.172-2.828 1.172h-55.508l-15.523 3.881c-.172.043-.348.074-.527.094l-62.906 6.99c-.45.051-.896.076-1.345.076zm-4.191-23.041v10.85c0 1.209.496 2.316 1.395 3.123.902.805 2.051 1.184 3.258 1.043l62.637-6.961 15.742-3.936c.316-.078.641-.119.969-.119h54.344l4-4z" fill="#4c241d"/></g><g fill="#4c241d"><path d="m248.016 75.998h-32c-2.211 0-4-1.791-4-4s1.789-4 4-4h32c2.211 0 4 1.791 4 4s-1.789 4-4 4z"/><path d="m83.903 189.605c-.863 0-1.734-.279-2.465-.854-1.738-1.365-2.043-3.879-.676-5.617l18.832-23.98c1.363-1.732 3.879-2.039 5.613-.676 1.738 1.365 2.043 3.879.676 5.617l-18.832 23.98c-.789 1.005-1.961 1.53-3.148 1.53z"/><path d="m172.016 63.998h-52c-2.211 0-4-1.791-4-4s1.789-4 4-4h52c2.211 0 4 1.791 4 4s-1.789 4-4 4z"/><path d="m136.016 71.998c-2.211 0-4-1.791-4-4v-8c0-2.209 1.789-4 4-4s4 1.791 4 4v8c0 2.209-1.789 4-4 4z"/><path d="m156.016 71.998c-2.211 0-4-1.791-4-4v-8c0-2.209 1.789-4 4-4s4 1.791 4 4v8c0 2.209-1.789 4-4 4z"/></g><g><path d="m100.914 116.068c-1.555.07-3.121-.316-4.493-1.144l-37.04-22.363c-3.782-2.284-4.998-7.201-2.714-10.983 2.286-3.78 7.203-4.996 10.983-2.714l33.436 20.188 35.41-16.041c4.022-1.825 8.763-.041 10.588 3.987 1.823 4.024.039 8.765-3.987 10.588l-39.243 17.777c-.937.425-1.937.66-2.94.705z" fill="#a9ba5a"/><path d="m100.555 120.076c-2.188 0-4.32-.594-6.199-1.729l-37.039-22.361c-2.746-1.656-4.68-4.283-5.449-7.395-.77-3.113-.281-6.338 1.379-9.082 3.422-5.666 10.812-7.488 16.473-4.068l31.633 19.1 33.492-15.174c2.922-1.314 6.18-1.428 9.18-.301 3 1.129 5.383 3.359 6.707 6.281 2.727 6.031.043 13.156-5.984 15.883l-39.238 17.777c-1.395.631-2.879.988-4.414 1.057h-.004c-.182.008-.357.012-.537.012zm.359-4.008h.039zm-37.39-34.353c-1.355 0-2.68.689-3.434 1.934-.551.912-.715 1.986-.457 3.023.254 1.037.902 1.914 1.816 2.467l37.039 22.361c.684.412 1.516.596 2.25.572.508-.023 1-.141 1.465-.352l39.242-17.779c2.012-.908 2.906-3.283 1.996-5.295-.441-.973-1.234-1.717-2.234-2.092-.996-.379-2.082-.342-3.059.1l-35.41 16.043c-1.199.543-2.594.463-3.719-.221l-33.433-20.187c-.644-.389-1.355-.574-2.062-.574z" fill="#4c241d"/></g><path d="m108.016 47.998h-48c-2.211 0-4-1.791-4-4s1.789-4 4-4h48c2.211 0 4 1.791 4 4s-1.789 4-4 4z" fill="#4c241d"/><g><path d="m60.016 54.729c0 9.537 7.732 17.269 17.269 17.269h18.731v-28h-36z" fill="#ffe8dc"/><path d="m96.016 75.998h-18.73c-11.727 0-21.27-9.541-21.27-21.27v-10.73c0-2.209 1.789-4 4-4h36c2.211 0 4 1.791 4 4v28c0 2.209-1.789 4-4 4zm-32-28v6.73c0 7.316 5.953 13.27 13.27 13.27h14.73v-20z" fill="#4c241d"/></g><g><path d="m80.016 27.998h-4c-8.837 0-16 7.163-16 16h36c0-8.837-7.164-16-16-16z" fill="#bf7e68"/><path d="m96.016 47.998h-36c-2.211 0-4-1.791-4-4 0-11.027 8.973-20 20-20h4c11.027 0 20 8.973 20 20 0 2.209-1.789 4-4 4zm-31.317-8h26.633c-1.652-4.656-6.102-8-11.316-8h-4c-5.215 0-9.664 3.344-11.317 8z" fill="#4c241d"/></g><g><circle cx="196.016" cy="147.998" fill="#e66353" r="36"/><path d="m196.016 187.998c-22.055 0-40-17.943-40-40s17.945-40 40-40 40 17.943 40 40-17.946 40-40 40zm0-72c-17.645 0-32 14.355-32 32s14.355 32 32 32 32-14.355 32-32-14.356-32-32-32z" fill="#4c241d"/></g><path d="m172.016 175.998c-1.023 0-2.047-.391-2.828-1.172-1.562-1.562-1.562-4.094 0-5.656l48-48c1.562-1.562 4.094-1.562 5.656 0s1.562 4.094 0 5.656l-48 48c-.781.781-1.805 1.172-2.828 1.172z" fill="#4c241d"/><g><path d="m188.016 255.998v-72h16v72" fill="#bf7e68"/><path d="m204.016 259.998c-2.211 0-4-1.791-4-4v-68h-8v68c0 2.209-1.789 4-4 4s-4-1.791-4-4v-72c0-2.209 1.789-4 4-4h16c2.211 0 4 1.791 4 4v72c0 2.209-1.789 4-4 4z" fill="#4c241d"/></g></g></svg>